# xmcd
#
# Track frame offsets:
#	150
#	2037
#	26001
#	32473
#	41647
#	58128
#	75817
#	103625
#	125486
#	140256
#	167985
#	177453
#	200879
#	228666
#	250350
#
# Disc length: 3863 seconds
#
# Revision: 2
# Processed by: cddbd v1.5.1PL0 Copyright (c) Steve Scherf et al.
# Submitted via: audiograbber 1.83.01
#
DISCID=cb0f150f
DTITLE=Various Artist - Cinemotions
DYEAR=1995
DGENRE=Soundtrack
TTITLE0=Alfred Newman - 20th Century Fox Fanfare
TTITLE1=John Williams - Star Wars/Krieg der Sterne
TTITLE2=Alexander Courage - Star Trek/Raumschiff Enterprise
TTITLE3=Brad Fiedel - Terminator 2
TTITLE4=John Carpenter - Escape From New York/Die Klapperschlange
TTITLE5=Jerry Goldsmith - Rambo II
TTITLE6=Alan Silvestri - The Abyss
TTITLE7=Jerry Goldsmith - Basic Instinct
TTITLE8=Angelo Badalamenti, Bernie Wayne, Lee Morris, David Lynch - Blue Velvet
TTITLE9=Hans Zimmer - Green Card
TTITLE10=Ira Newborn - The Naked Gun 2 1/2
TTITLE11=Jerry Goldsmith - Medicine Man
TTITLE12=Miklós Rósza - Jungle Book/Das Dschungelbuch
TTITLE13=Erich Korngold - Robin Hood - The Adventures - Robin Hood, König der V
TTITLE13=agabunden
TTITLE14=Miklós Rósza - Ben Hur
EXTD=100 Years Of Cinema - Great Moments In Filmmusic
EXTT0=
EXTT1=
EXTT2=
EXTT3=
EXTT4=
EXTT5=
EXTT6=
EXTT7=
EXTT8=
EXTT9=
EXTT10=
EXTT11=
EXTT12=
EXTT13=
EXTT14=
PLAYORDER=
